<svg id="Calque_1" data-name="Calque 1" xmlns="http://www.w3.org/2000/svg" viewBox="0 0 20.46 20.46"><defs><style>.cls-1{fill:#2fab73;}.cls-2{fill:#fff;}</style></defs><title>checkmark</title><circle class="cls-1" cx="10.23" cy="10.23" r="10.23"/><path class="cls-2" d="M282.65,401.12l-5.85,5.51-.06.06-.05,0-.13.1a.87.87,0,0,1-.19.1l-.17.06a1.12,1.12,0,0,1-.32,0,1.17,1.17,0,0,1-.67-.2l-.18-.14-.06-.05,0,0L272.1,404a1.25,1.25,0,0,1,1.71-1.83l2.07,1.94,5.05-4.77a1.25,1.25,0,1,1,1.72,1.82Z" transform="translate(-267.63 -392.77)"/></svg>